<svg width="34" height="34" viewBox="0 0 34 34" fill="none" xmlns="http://www.w3.org/2000/svg">
<path fill-rule="evenodd" clip-rule="evenodd" d="M5.66667 0.944444C5.66667 0.693962 5.76617 0.453739 5.94329 0.276622C6.12041 0.0995039 6.36063 0 6.61111 0H27.3889C27.6394 0 27.8796 0.0995039 28.0567 0.276622C28.2338 0.453739 28.3333 0.693962 28.3333 0.944444V1.88889H33.0556C33.306 1.88889 33.5463 1.98839 33.7234 2.16551C33.9005 2.34263 34 2.58285 34 2.83333V8.5C34 9.75241 33.5025 10.9535 32.6169 11.8391C31.7313 12.7247 30.5302 13.2222 29.2778 13.2222H27.6883C27.0132 15.1273 25.8417 16.8175 24.2947 18.1182C22.7478 19.4189 20.8815 20.283 18.8889 20.621V26.4444H24.5556C24.806 26.4444 25.0463 26.5439 25.2234 26.7211C25.4005 26.8982 25.5 27.1384 25.5 27.3889V33.0556C25.5 33.306 25.4005 33.5463 25.2234 33.7234C25.0463 33.9005 24.806 34 24.5556 34H9.44444C9.19396 34 8.95374 33.9005 8.77662 33.7234C8.5995 33.5463 8.5 33.306 8.5 33.0556V27.3889C8.5 27.1384 8.5995 26.8982 8.77662 26.7211C8.95374 26.5439 9.19396 26.4444 9.44444 26.4444H15.1111V20.621C13.1185 20.283 11.2522 19.4189 9.70528 18.1182C8.15833 16.8175 6.98678 15.1273 6.31172 13.2222H4.72222C3.46981 13.2222 2.2687 12.7247 1.38311 11.8391C0.497518 10.9535 0 9.75241 0 8.5V2.83333C0 2.58285 0.0995039 2.34263 0.276622 2.16551C0.453739 1.98839 0.693962 1.88889 0.944444 1.88889H5.66667V0.944444ZM28.3333 9.44444V3.77778H32.1111V8.5C32.1111 9.25145 31.8126 9.97212 31.2812 10.5035C30.7499 11.0348 30.0292 11.3333 29.2778 11.3333H28.3333V9.44444ZM5.66667 3.77778H1.88889V8.5C1.88889 9.25145 2.1874 9.97212 2.71875 10.5035C3.25011 11.0348 3.97078 11.3333 4.72222 11.3333H5.66667V9.44444V3.77778Z" fill="#F2C94C"/>
</svg>
