<svg width="17" height="16" viewBox="0 0 17 16" fill="none" xmlns="http://www.w3.org/2000/svg">
<path d="M7.79758 0.975098C6.45315 0.975098 5.1389 1.359 4.02105 2.07827C2.90319 2.79753 2.03193 3.81985 1.51744 5.01594C1.00295 6.21203 0.868331 7.52817 1.13062 8.79794C1.3929 10.0677 2.04031 11.2341 2.99097 12.1495C3.94163 13.0649 5.15284 13.6884 6.47144 13.941C7.79004 14.1935 9.15681 14.0639 10.3989 13.5685C11.641 13.073 12.7026 12.234 13.4496 11.1576C14.1965 10.0811 14.5952 8.81555 14.5952 7.52091C14.595 5.78489 13.8788 4.12 12.6041 2.89244C11.3293 1.66489 9.60037 0.975208 7.79758 0.975098Z" stroke="white" stroke-miterlimit="10"/>
<path d="M12.8711 12.4043L16 15.4751" stroke="white" stroke-miterlimit="10" stroke-linecap="round"/>
</svg>
