<svg width="140" height="32" viewBox="0 0 140 32" fill="none" xmlns="http://www.w3.org/2000/svg">
<g opacity="0.6" clip-path="url(#clip0_76_10369)">
<path d="M37.838 8.28905C37.838 8.28905 36.5071 10.1397 37.7112 11.8746C37.7112 11.8746 39.1689 11.0071 38.852 9.61917C38.5351 8.23121 37.838 8.28905 37.838 8.28905Z" fill="#9D9D9D"/>
<path d="M50.5115 8.17338C50.5115 8.17338 51.8424 9.96617 50.765 11.7589C50.765 11.7589 49.3074 10.8915 49.5609 9.50351C49.8144 8.11555 50.5115 8.17338 50.5115 8.17338Z" fill="#9D9D9D"/>
<path d="M44.1736 14.3035C47.6739 14.3035 50.5114 11.7143 50.5114 8.52038C50.5114 5.32643 47.6739 2.73722 44.1736 2.73722C40.6734 2.73722 37.8359 5.32643 37.8359 8.52038C37.8359 11.7143 40.6734 14.3035 44.1736 14.3035Z" fill="#9D9D9D"/>
<path d="M41.3866 10.1975C42.7867 10.1975 43.9217 9.16181 43.9217 7.88423C43.9217 6.60664 42.7867 5.57096 41.3866 5.57096C39.9866 5.57096 38.8516 6.60664 38.8516 7.88423C38.8516 9.16181 39.9866 10.1975 41.3866 10.1975Z" fill="white"/>
<path d="M42.2076 8.86737C42.6976 8.86737 43.0949 8.50488 43.0949 8.05772C43.0949 7.61057 42.6976 7.24808 42.2076 7.24808C41.7176 7.24808 41.3203 7.61057 41.3203 8.05772C41.3203 8.50488 41.7176 8.86737 42.2076 8.86737Z" fill="#9D9D9D"/>
<path d="M47.0898 10.1397C48.4899 10.1397 49.6249 9.10398 49.6249 7.82639C49.6249 6.54881 48.4899 5.51313 47.0898 5.51313C45.6897 5.51313 44.5547 6.54881 44.5547 7.82639C44.5547 9.10398 45.6897 10.1397 47.0898 10.1397Z" fill="white"/>
<path d="M46.2037 8.80953C46.6937 8.80953 47.091 8.44704 47.091 7.99989C47.091 7.55274 46.6937 7.19025 46.2037 7.19025C45.7137 7.19025 45.3164 7.55274 45.3164 7.99989C45.3164 8.44704 45.7137 8.80953 46.2037 8.80953Z" fill="#9D9D9D"/>
<path d="M39.6094 4.52999C41.8276 2.50589 44.1725 2.33239 46.8344 2.44805C46.8344 2.44805 46.4541 3.31553 45.8837 3.83601C45.4401 4.24083 41.2572 4.52999 41.2572 4.52999H39.6094Z" fill="#9D9D9D"/>
<path d="M45.1396 10.0587L44.2344 9.24992L43.348 10.076L44.2533 10.8848L45.1396 10.0587Z" fill="white"/>
<path d="M134.551 1.58058C131.256 0.192623 127.453 1.75408 127.453 1.75408C127.453 1.75408 129.354 3.37336 131.129 2.67938C131.636 2.44806 133.157 1.9854 133.157 1.9854L134.551 1.58058Z" fill="#9D9D9D"/>
<path d="M128.403 7.82639C128.403 7.82639 125.678 8.69387 123.84 9.73484C123.84 9.73484 125.171 10.9493 126.945 10.4866C128.466 10.1397 128.403 7.82639 128.403 7.82639Z" fill="#9D9D9D"/>
<path d="M135.246 5.39747C135.246 5.39747 137.908 4.3565 139.999 4.00951C139.999 4.00951 139.873 5.74446 138.288 6.49627C136.894 7.13242 135.246 5.39747 135.246 5.39747Z" fill="#9D9D9D"/>
<path d="M131.888 12.6264C135.389 12.6264 138.226 10.0372 138.226 6.84326C138.226 3.64931 135.389 1.0601 131.888 1.0601C128.388 1.0601 125.551 3.64931 125.551 6.84326C125.551 10.0372 128.388 12.6264 131.888 12.6264Z" fill="#9D9D9D"/>
<path d="M135.122 7.13242C136.242 7.13242 137.15 6.30387 137.15 5.2818C137.15 4.25974 136.242 3.43119 135.122 3.43119C134.002 3.43119 133.094 4.25974 133.094 5.2818C133.094 6.30387 134.002 7.13242 135.122 7.13242Z" fill="white"/>
<path d="M128.337 9.50351C129.457 9.50351 130.365 8.67496 130.365 7.6529C130.365 6.63083 129.457 5.80229 128.337 5.80229C127.217 5.80229 126.309 6.63083 126.309 7.6529C126.309 8.67496 127.217 9.50351 128.337 9.50351Z" fill="white"/>
<path d="M128.845 8.46254C129.37 8.46254 129.796 8.07416 129.796 7.59507C129.796 7.11598 129.37 6.7276 128.845 6.7276C128.32 6.7276 127.895 7.11598 127.895 7.59507C127.895 8.07416 128.32 8.46254 128.845 8.46254Z" fill="#9D9D9D"/>
<path d="M134.74 6.3806C135.265 6.3806 135.69 5.99222 135.69 5.51313C135.69 5.03404 135.265 4.64566 134.74 4.64566C134.215 4.64566 133.789 5.03404 133.789 5.51313C133.789 5.99222 134.215 6.3806 134.74 6.3806Z" fill="#9D9D9D"/>
<path d="M132.65 8.69387L131.129 7.76856L131.573 6.20711L133.094 7.07458L132.65 8.69387Z" fill="white"/>
<path d="M132.466 5.09243L129.98 5.96272L130.798 7.90641L133.283 7.03613L132.466 5.09243Z" fill="#9D9D9D"/>
<path d="M95.0034 8.7517C95.0034 8.7517 93.7993 10.6601 95.1302 12.3373C95.1302 12.3373 96.5245 11.3541 96.0808 10.024C95.7006 8.63603 95.0034 8.7517 95.0034 8.7517Z" fill="#9D9D9D"/>
<path d="M107.68 7.82639C107.68 7.82639 109.138 9.56134 108.187 11.3541C108.187 11.3541 106.666 10.6023 106.856 9.21435C107.046 7.82639 107.68 7.82639 107.68 7.82639Z" fill="#9D9D9D"/>
<path d="M101.342 14.3614C104.842 14.3614 107.679 11.7722 107.679 8.5782C107.679 5.38425 104.842 2.79504 101.342 2.79504C97.8414 2.79504 95.0039 5.38425 95.0039 8.5782C95.0039 11.7722 97.8414 14.3614 101.342 14.3614Z" fill="#9D9D9D"/>
<path d="M96.4609 4.87698C98.5524 2.73721 100.517 2.10107 103.432 1.92757C103.432 1.92757 102.989 3.31553 102.735 3.83601C102.482 4.3565 98.1721 4.76132 98.1721 4.76132L96.4609 4.87698Z" fill="#9D9D9D"/>
<path d="M102.355 8.98302C101.975 8.5782 101.405 9.04086 101.405 9.04086C101.405 9.04086 100.771 8.63603 100.454 9.09869C100.074 9.677 101.531 10.3132 101.531 10.3132C101.531 10.3132 102.862 9.50351 102.355 8.98302Z" fill="white"/>
<path d="M98.1705 7.71073L95.4453 8.98302C95.8256 10.0818 97.917 10.718 99.6916 9.21435C100.832 8.23121 97.7903 8.34688 97.7903 8.34688L98.1705 7.71073Z" fill="#9D9D9D"/>
<path d="M98.1731 9.8505C99.4682 9.8505 100.518 8.89249 100.518 7.71073C100.518 6.52897 99.4682 5.57096 98.1731 5.57096C96.878 5.57096 95.8281 6.52897 95.8281 7.71073C95.8281 8.89249 96.878 9.8505 98.1731 9.8505Z" fill="#9D9D9D"/>
<path d="M104.319 7.24807L107.235 8.11555C107.044 9.27218 105.08 10.1975 103.052 8.92519C101.721 8.11555 104.763 7.82639 104.763 7.82639L104.319 7.24807Z" fill="#9D9D9D"/>
<path d="M104.322 9.38785C105.617 9.38785 106.666 8.42984 106.666 7.24808C106.666 6.06632 105.617 5.10831 104.322 5.10831C103.026 5.10831 101.977 6.06632 101.977 7.24808C101.977 8.42984 103.026 9.38785 104.322 9.38785Z" fill="#9D9D9D"/>
<path d="M78.4609 8.52037C78.4609 8.52037 78.8412 6.49627 83.9114 6.78543C83.9114 6.78543 83.2142 8.57821 81.1862 8.98303C79.2848 9.38785 78.4609 8.52037 78.4609 8.52037Z" fill="#9D9D9D"/>
<path d="M71.6156 6.84326C71.6156 6.84326 72.1226 4.81915 67.3693 3.31553C67.3693 3.31553 67.2425 5.22398 68.9537 6.32278C70.5382 7.30591 71.6156 6.84326 71.6156 6.84326Z" fill="#9D9D9D"/>
<path d="M75.3572 12.6264C78.8575 12.6264 81.6949 10.0372 81.6949 6.84326C81.6949 3.64931 78.8575 1.0601 75.3572 1.0601C71.857 1.0601 69.0195 3.64931 69.0195 6.84326C69.0195 10.0372 71.857 12.6264 75.3572 12.6264Z" fill="#9D9D9D"/>
<path d="M78.4617 8.11555C79.5817 8.11555 80.4897 7.287 80.4897 6.26494C80.4897 5.24288 79.5817 4.41433 78.4617 4.41433C77.3416 4.41433 76.4336 5.24288 76.4336 6.26494C76.4336 7.287 77.3416 8.11555 78.4617 8.11555Z" fill="white"/>
<path d="M77.9537 7.13241C78.4437 7.13241 78.841 6.76993 78.841 6.32277C78.841 5.87562 78.4437 5.51313 77.9537 5.51313C77.4637 5.51313 77.0664 5.87562 77.0664 6.32277C77.0664 6.76993 77.4637 7.13241 77.9537 7.13241Z" fill="#9D9D9D"/>
<path d="M72.6921 6.95892C73.8122 6.95892 74.7202 6.13037 74.7202 5.10831C74.7202 4.08624 73.8122 3.2577 72.6921 3.2577C71.5721 3.2577 70.6641 4.08624 70.6641 5.10831C70.6641 6.13037 71.5721 6.95892 72.6921 6.95892Z" fill="white"/>
<path d="M73.2623 6.20711C73.7523 6.20711 74.1496 5.84462 74.1496 5.39747C74.1496 4.95031 73.7523 4.58783 73.2623 4.58783C72.7722 4.58783 72.375 4.95031 72.375 5.39747C72.375 5.84462 72.7722 6.20711 73.2623 6.20711Z" fill="#9D9D9D"/>
<path d="M75.0149 8.33695L76.2383 7.61376L75.4457 6.49738L74.2223 7.22057L75.0149 8.33695Z" fill="white"/>
<path d="M74.7852 1.0601C75.9893 1.00227 76.5597 0.366119 76.5597 0.366119C76.5597 0.366119 76.8766 1.0601 77.8273 1.46492L76.6231 2.56372L74.7852 1.0601Z" fill="#9D9D9D"/>
<path d="M46.5805 15.3445H41.8906V31.5952H46.5805V15.3445Z" fill="#020A10"/>
<path d="M78.4594 15.3445H73.7695V31.5952H78.4594V15.3445Z" fill="#020A10"/>
<path d="M104.127 15.3445H99.4375V31.5952H104.127V15.3445Z" fill="#020A10"/>
<path d="M136.006 15.3445H131.316V31.5952H136.006V15.3445Z" fill="#020A10"/>
<path d="M70.0968 15.3445H63.4422L56.7876 21.4168V8.80953H52.0977V31.5952H56.7876V24.5397L64.5829 31.5952H71.2375L61.731 22.9783L70.0968 15.3445Z" fill="#020A10"/>
<path d="M127.706 15.3445H121.052L114.397 21.4168V8.80953H109.707V31.5952H114.397V24.5397L122.192 31.5952H128.847L119.34 22.9783L127.706 15.3445Z" fill="#020A10"/>
<path d="M29.7224 14.9397C26.9338 14.9397 25.3493 16.0963 24.2719 17.3686V8.80953H19.582V31.5952H24.2719V21.9373C24.2719 19.9132 26.1733 18.8144 27.9478 18.8144C30.1026 18.8144 31.3702 19.8554 31.3702 21.9373V31.5952H36.1235V20.6072C36.1868 17.0794 33.3349 14.9397 29.7224 14.9397Z" fill="#020A10"/>
<path d="M88.8548 18.4096V15.3445H84.1016V31.5952H88.8548V24.9445C88.8548 21.3012 92.0237 19.5662 95.1926 19.5662H95.4461V15.0553C92.6575 14.9397 89.8055 16.3276 88.8548 18.4096Z" fill="#020A10"/>
<path d="M0 23.3831C0 23.4409 0 23.5566 0 23.5566C0 31.653 9.37981 33.3301 14.7669 31.0169V27.0843C13.2458 27.7205 11.7248 28.0675 10.2037 28.0675C8.61928 28.0675 7.28836 27.6626 6.21095 26.7952C5.19692 25.9855 4.62653 24.8867 4.62653 23.5566V23.4409C4.62653 22.1108 5.13354 21.012 6.21095 20.2024C7.28836 19.3349 8.61928 18.9301 10.2037 18.9301C11.6614 18.9301 13.1824 19.2771 14.7669 19.9132V15.9807C9.37981 13.6096 0 15.2867 0 23.3831Z" fill="#020A10"/>
<path d="M100.581 15.2288C100.328 15.2288 100.074 14.9975 100.074 14.7662V12.5108C100.074 12.2794 100.328 12.0481 100.581 12.0481C100.835 12.0481 101.088 12.2794 101.088 12.5108V14.7662C101.088 14.9975 100.898 15.2288 100.581 15.2288Z" fill="#9D9D9D"/>
<path d="M102.546 15.2288C102.293 15.2288 102.039 14.9975 102.039 14.7662V12.5108C102.039 12.2794 102.293 12.0481 102.546 12.0481C102.8 12.0481 103.053 12.2794 103.053 12.5108V14.7662C103.053 14.9975 102.8 15.2288 102.546 15.2288Z" fill="#9D9D9D"/>
<path d="M43.2219 15.171C42.9683 15.171 42.7148 14.9397 42.7148 14.7084V12.5108C42.7148 12.2794 42.9683 12.0481 43.2219 12.0481C43.4754 12.0481 43.7289 12.2794 43.7289 12.5108V14.7662C43.7289 14.9975 43.5387 15.171 43.2219 15.171Z" fill="#9D9D9D"/>
<path d="M45.1867 15.171C44.9332 15.171 44.6797 14.9397 44.6797 14.7084V12.5108C44.6797 12.2794 44.9332 12.0481 45.1867 12.0481C45.4402 12.0481 45.6937 12.2794 45.6937 12.5108V14.7662C45.6937 14.9975 45.4402 15.171 45.1867 15.171Z" fill="#9D9D9D"/>
<path d="M41.8932 7.94191C41.9981 7.94191 42.0832 7.86427 42.0832 7.76849C42.0832 7.67271 41.9981 7.59507 41.8932 7.59507C41.7882 7.59507 41.7031 7.67271 41.7031 7.76849C41.7031 7.86427 41.7882 7.94191 41.8932 7.94191Z" fill="white"/>
<path d="M45.8229 7.94191C45.9278 7.94191 46.0129 7.86427 46.0129 7.76849C46.0129 7.67271 45.9278 7.59507 45.8229 7.59507C45.7179 7.59507 45.6328 7.67271 45.6328 7.76849C45.6328 7.86427 45.7179 7.94191 45.8229 7.94191Z" fill="white"/>
<path d="M73.0729 5.22382C73.1778 5.22382 73.2629 5.14618 73.2629 5.0504C73.2629 4.95462 73.1778 4.87698 73.0729 4.87698C72.9679 4.87698 72.8828 4.95462 72.8828 5.0504C72.8828 5.14618 72.9679 5.22382 73.0729 5.22382Z" fill="white"/>
<path d="M77.7018 6.14912C77.8067 6.14912 77.8918 6.07148 77.8918 5.9757C77.8918 5.87993 77.8067 5.80229 77.7018 5.80229C77.5968 5.80229 77.5117 5.87993 77.5117 5.9757C77.5117 6.07148 77.5968 6.14912 77.7018 6.14912Z" fill="white"/>
<path d="M128.338 7.59491C128.443 7.59491 128.529 7.51727 128.529 7.4215C128.529 7.32572 128.443 7.24808 128.338 7.24808C128.234 7.24808 128.148 7.32572 128.148 7.4215C128.148 7.51727 128.234 7.59491 128.338 7.59491Z" fill="white"/>
<path d="M134.233 5.51297C134.338 5.51297 134.423 5.43533 134.423 5.33956C134.423 5.24378 134.338 5.16614 134.233 5.16614C134.128 5.16614 134.043 5.24378 134.043 5.33956C134.043 5.43533 134.128 5.51297 134.233 5.51297Z" fill="white"/>
</g>
<defs>
<clipPath id="clip0_76_10369">
<rect width="140" height="31.6339" fill="white" transform="translate(0 0.366119)"/>
</clipPath>
</defs>
</svg>
