<svg width="31" height="39" viewBox="0 0 31 39" fill="none" xmlns="http://www.w3.org/2000/svg">
<path d="M3.05507 7.30073L4.26812 12.4674L3.05507 17.6116L7.57029 20.3971L10.3333 24.9123L15.5 23.6993L20.6667 24.9123L23.4297 20.3971L27.9449 17.6116L26.7319 12.4674L27.9449 7.30073L23.4522 4.51522L20.6667 0L15.5 1.23551L10.3558 0.0224638L7.54783 4.51522L3.05507 7.30073ZM15.5225 21.5428C13.1394 21.5428 10.8539 20.5961 9.16875 18.911C7.48364 17.2259 6.53696 14.9404 6.53696 12.5572C6.53696 10.1741 7.48364 7.88864 9.16875 6.20353C10.8539 4.51842 13.1394 3.57174 15.5225 3.57174C20.4645 3.57174 24.4855 7.59275 24.4855 12.5348C24.4855 17.5217 20.4645 21.5428 15.5225 21.5428ZM15.4775 19.2964C11.7486 19.2964 8.76087 16.2862 8.76087 12.5572C8.76087 8.85073 11.7486 5.81812 15.4775 5.81812C19.2065 5.81812 22.2391 8.85073 22.2391 12.5572C22.2391 16.2862 19.2065 19.2964 15.4775 19.2964ZM24.1036 21.7674L21.2283 26.7993L16.5558 25.7435L22.2391 38.8399L25.3841 33.8978H31L24.1036 21.7674ZM6.80652 21.9246L9.61449 26.979L14.3993 25.8333L8.76087 38.8399L5.61594 33.8978H0L6.80652 21.9246Z" fill="#9D9D9D"/>
</svg>
